# xmcd
#
# Track frame offsets: 
#        150
#        15451
#        29150
#        43671
#        65836
#        84579
#        98924
#        116434
#        133204
#        148829
#        164779
#        179449
#
# Disc length: 2663 seconds
#
# Revision: 1
# Processed by: cddbd v1.5.2PL0 Copyright (c) Steve Scherf et al.
# Submitted via: ExactAudioCopy v0.99pb5
#
DISCID=b50a650c
DTITLE=Sanne Salomonsen - Unico
DYEAR=2009
DGENRE=Rock
TTITLE0=Tændt
TTITLE1=Taxa
TTITLE2=Fantomsmerter
TTITLE3=Overgi'r Mig Langsomt
TTITLE4=6. Sans
TTITLE5=Du and Jeg
TTITLE6=Vis Mig Hvem Du Er
TTITLE7=Hel Igen
TTITLE8=Rør Ved Mig 
TTITLE9=Natten Går Til Ro
TTITLE10=Over Stregen
TTITLE11=Der Var Hvad Der Var
EXTD=
EXTT0=
EXTT1=
EXTT2=
EXTT3=
EXTT4=
EXTT5=
EXTT6=
EXTT7=
EXTT8=
EXTT9=
EXTT10=
EXTT11=
PLAYORDER=
